<svg width="120" height="120" viewBox="0 0 120 120" fill="none" xmlns="http://www.w3.org/2000/svg">
<path d="M60.0035 35.9649C46.7027 35.9649 35.9683 46.6993 35.9683 60.0001C35.9683 73.3009 46.7027 84.0352 60.0035 84.0352C73.3043 84.0352 84.0386 73.3009 84.0386 60.0001C84.0386 46.6993 73.3043 35.9649 60.0035 35.9649ZM60.0035 75.6212C51.4019 75.6212 44.3824 68.6016 44.3824 60.0001C44.3824 51.3985 51.4019 44.379 60.0035 44.379C68.605 44.379 75.6246 51.3985 75.6246 60.0001C75.6246 68.6016 68.605 75.6212 60.0035 75.6212ZM85.023 29.379C81.9176 29.379 79.4097 31.8868 79.4097 34.9923C79.4097 38.0977 81.9176 40.6055 85.023 40.6055C88.1285 40.6055 90.6363 38.1094 90.6363 34.9923C90.6372 34.2548 90.4927 33.5245 90.2109 32.8431C89.9291 32.1616 89.5157 31.5424 88.9943 31.021C88.4728 30.4996 87.8537 30.0861 87.1722 29.8044C86.4908 29.5226 85.7604 29.378 85.023 29.379V29.379ZM106.855 60.0001C106.855 53.5313 106.914 47.1212 106.55 40.6641C106.187 33.1641 104.476 26.5079 98.9918 21.0235C93.4957 15.5274 86.8511 13.8282 79.3511 13.4649C72.8824 13.1016 66.4722 13.1602 60.0152 13.1602C53.5464 13.1602 47.1363 13.1016 40.6793 13.4649C33.1793 13.8282 26.523 15.5391 21.0386 21.0235C15.5425 26.5196 13.8433 33.1641 13.48 40.6641C13.1168 47.1329 13.1754 53.543 13.1754 60.0001C13.1754 66.4571 13.1168 72.879 13.48 79.336C13.8433 86.836 15.5543 93.4923 21.0386 98.9766C26.5347 104.473 33.1793 106.172 40.6793 106.535C47.148 106.899 53.5582 106.84 60.0152 106.84C66.4839 106.84 72.8941 106.899 79.3511 106.535C86.8511 106.172 93.5074 104.461 98.9918 98.9766C104.488 93.4805 106.187 86.836 106.55 79.336C106.925 72.879 106.855 66.4688 106.855 60.0001V60.0001ZM96.5425 87.6329C95.6871 89.7657 94.6558 91.3594 93.0035 93.0001C91.3511 94.6524 89.7691 95.6837 87.6363 96.5391C81.4722 98.9884 66.8355 98.4376 60.0035 98.4376C53.1715 98.4376 38.523 98.9884 32.359 96.5509C30.2261 95.6954 28.6324 94.6641 26.9918 93.0118C25.3394 91.3594 24.3082 89.7774 23.4527 87.6446C21.0152 81.4688 21.566 66.8321 21.566 60.0001C21.566 53.168 21.0152 38.5196 23.4527 32.3555C24.3082 30.2227 25.3394 28.629 26.9918 26.9884C28.6441 25.3477 30.2261 24.3048 32.359 23.4493C38.523 21.0118 53.1715 21.5626 60.0035 21.5626C66.8355 21.5626 81.484 21.0118 87.648 23.4493C89.7808 24.3048 91.3746 25.336 93.0152 26.9884C94.6676 28.6407 95.6988 30.2227 96.5543 32.3555C98.9918 38.5196 98.441 53.168 98.441 60.0001C98.441 66.8321 98.9918 81.4688 96.5425 87.6329Z" fill="white"/>
</svg>
