<svg width="430" height="195" viewBox="0 0 430 195" fill="none" xmlns="http://www.w3.org/2000/svg">
<path d="M0.960262 118.377C0.311874 117.209 0.150646 116.19 0.476577 115.32C0.802511 114.45 1.28492 113.538 1.92382 112.585C5.88195 106.493 10.5192 101.057 15.8355 96.2784C21.1238 91.3953 26.7643 87.2005 32.757 83.694C35.2457 82.1327 37.7903 80.78 40.3908 79.6359C43.0956 78.4639 45.8322 77.6189 48.6004 77.1008C53.6916 76.072 58.2073 76.651 62.1475 78.8377C66.1641 80.8921 68.9057 84.2386 70.3722 88.8771C71.2312 91.6658 71.673 94.5663 71.6974 97.5786C71.694 100.487 71.4157 103.412 70.8627 106.356C70.3097 109.299 69.5722 112.18 68.6503 114.999C67.7284 117.817 66.7506 120.427 65.7169 122.829C61.2711 134.195 55.9516 145.012 49.7584 155.281C43.6694 165.522 37.4063 175.53 30.9689 185.305L26.6774 191.822C25.2953 193.758 23.4492 194.588 21.1392 194.312C20.2208 194.223 19.2986 193.911 18.3727 193.376C17.4468 192.842 16.5591 192.241 15.7095 191.574C14.9364 190.775 14.3197 189.934 13.8595 189.051C13.5036 188.14 13.4085 187.159 13.5742 186.109C13.6431 185.531 13.8442 185.03 14.1776 184.605C14.4831 184.076 14.8407 183.533 15.2505 182.976L21.9477 172.293C27.0513 164.216 31.7796 156.409 36.1326 148.869C40.5619 141.197 44.7546 133.477 48.7107 125.708C49.8767 123.383 51.1954 120.794 52.6669 117.94C54.1104 114.981 55.4356 111.999 56.6425 108.992C57.9537 105.957 59.0041 102.992 59.7937 100.097C60.5554 97.098 60.7573 94.3045 60.3994 91.717C60.1049 89.7833 59.3484 88.4207 58.13 87.629C56.9116 86.8374 55.5163 86.4286 53.944 86.4027C52.4481 86.2445 50.8655 86.389 49.1964 86.8362C47.5273 87.2835 46.0426 87.7931 44.7424 88.3651C41.5439 89.7812 38.6137 91.5726 35.9518 93.7394C33.2619 95.8019 30.7463 98.0972 28.4048 100.625C26.1677 103.126 24.0247 105.768 21.9757 108.553C20.0311 111.311 18.1768 113.988 16.4129 116.585C15.1351 118.493 14.2671 119.843 13.8089 120.637C13.3507 121.431 12.8887 122.002 12.423 122.35C11.5475 123.255 10.5463 123.691 9.41921 123.658C8.29216 123.625 7.16135 123.369 6.02681 122.89C4.86431 122.307 3.84431 121.63 2.96682 120.859C2.06137 119.983 1.39252 119.156 0.960262 118.377ZM105.144 162.914C102.772 163.662 100.678 163.775 98.8619 163.256C97.1219 162.604 95.7153 161.527 94.6421 160.026C93.569 158.524 92.833 156.821 92.4342 154.915C92.1117 152.877 92.1302 150.86 92.4895 148.863C93.1728 144.319 94.5939 140.025 96.7526 135.98C99.0157 131.908 101.241 127.901 103.427 123.961C103.733 123.432 104.319 122.492 105.187 121.142C106.028 119.687 106.777 118.312 107.437 117.017C108.068 115.618 108.404 114.577 108.445 113.896C108.486 113.214 107.884 113.263 106.64 114.044C104.464 115.521 102.397 117.193 100.437 119.06C98.4773 120.927 96.65 122.87 94.9549 124.89C93.0307 127.306 91.1205 129.775 89.2243 132.295C87.4324 134.788 85.7728 137.357 84.2454 140.002C83.3011 141.485 82.3363 143.309 81.351 145.474C80.3377 147.535 79.3524 149.699 78.3951 151.968C77.4378 154.237 76.4944 156.559 75.565 158.932C74.712 161.173 73.9214 163.23 73.1932 165.102C72.8393 165.868 72.6037 166.658 72.4864 167.472C72.3691 168.286 71.9351 168.961 71.1844 169.498C69.7594 170.439 68.1005 170.716 66.2077 170.328C64.315 169.941 62.8982 169.035 61.9573 167.61C61.4207 166.859 61.2111 166.077 61.3284 165.263C61.4456 164.448 61.6291 163.673 61.8786 162.935L63.8425 155.868C64.6116 153.314 65.4711 150.679 66.421 147.965C67.3708 145.251 68.5395 142.31 69.9271 139.143C71.1824 135.9 72.719 132.245 74.5369 128.18C76.459 124.087 78.7248 119.399 81.3343 114.116C81.6398 113.587 81.9452 113.058 82.2507 112.529C82.6605 111.972 83.0982 111.519 83.5639 111.17C85.1697 110.069 86.8845 110.001 88.7083 110.966C90.6365 111.903 91.9425 113.23 92.6263 114.948C94.7591 112.475 97.0662 110.236 99.5474 108.229C102.001 106.119 104.826 104.355 108.025 102.939C110.34 101.983 112.26 101.636 113.784 101.899C115.308 102.162 116.641 102.755 117.783 103.679C119.057 104.679 119.876 105.857 120.239 107.213C120.707 108.541 120.914 109.94 120.86 111.408C120.778 112.771 120.488 114.191 119.989 115.666C119.566 117.009 119.129 118.3 118.678 119.539C116.687 124.21 114.456 128.609 111.984 132.738C109.485 136.762 107.316 140.977 105.477 145.383C105.228 146.12 104.916 147.042 104.542 148.149C104.244 149.123 104.036 150.018 103.919 150.832C103.801 151.646 103.851 152.247 104.067 152.637C104.283 153.026 104.805 152.886 105.632 152.218C106.848 151.333 108.099 150.159 109.384 148.696C110.669 147.234 111.875 145.681 113 144.038C114.125 142.395 115.184 140.713 116.176 138.994C117.273 137.246 118.28 135.579 119.197 133.992L122.748 127.841C123.206 127.047 123.688 126.135 124.195 125.105C124.702 124.075 125.368 123.225 126.196 122.557C127.697 121.483 129.279 121.339 130.943 122.123C132.683 122.775 133.634 124.029 133.796 125.887C133.867 126.986 133.635 127.998 133.101 128.924C132.643 129.718 132.146 130.578 131.612 131.504L128.217 137.612C127.148 139.464 126.027 141.33 124.853 143.21C123.756 144.957 122.607 146.719 121.405 148.494C119.412 151.488 117.103 154.343 114.476 157.059C111.954 159.748 108.843 161.699 105.144 162.914ZM124.607 151.326C122.58 149.186 121.397 146.651 121.06 143.723C120.59 140.718 120.608 137.862 121.112 135.155C122.17 129.505 124.084 124.129 126.853 119.026C129.699 113.791 132.379 108.768 134.891 103.958C135.474 102.796 136.071 101.685 136.682 100.627C137.293 99.569 137.956 98.4968 138.672 97.4107C140.054 95.475 141.823 94.7772 143.981 95.3173C146.166 95.9616 147.656 97.3512 148.452 99.486C148.78 100.293 148.909 100.985 148.841 101.562C148.876 102.112 148.717 102.769 148.363 103.535C145.677 108.951 142.959 114.039 140.21 118.801C137.565 123.535 135.317 128.498 133.466 133.69C132.509 135.959 131.993 137.998 131.918 139.807C131.948 141.588 132.246 142.906 132.81 143.761C133.479 144.588 134.492 144.82 135.848 144.457C137.176 143.989 138.74 142.731 140.539 140.684C142.234 138.664 143.849 136.554 145.384 134.354C147.023 132.126 148.544 129.874 149.947 127.597C151.55 124.819 153.112 121.885 154.632 118.794C153.251 116.146 152.649 113.064 152.826 109.551C153.105 104.333 154.765 99.4715 157.807 94.9668C158.37 94.1452 159.075 93.2295 159.922 92.2197C160.874 91.182 161.882 90.353 162.945 89.7325C164.085 88.9798 165.243 88.5019 166.419 88.2987C167.698 88.0676 169.052 88.3199 170.479 89.0556C172.435 90.0968 173.488 91.9391 173.637 94.5826C173.891 97.1981 173.703 100.044 173.073 103.119C172.416 106.091 171.508 108.962 170.35 111.732C169.267 114.37 168.449 116.322 167.894 117.589C169.181 117.803 170.437 117.69 171.661 117.251C172.856 116.706 173.958 116.02 174.966 115.191C176.078 114.334 176.992 113.362 177.707 112.276C178.394 111.086 179.2 109.919 180.124 108.777C181.048 107.635 182.178 107.053 183.513 107.031C184.925 106.876 186.15 107.274 187.188 108.226C188.414 109.463 188.868 110.739 188.549 112.054C188.335 113.342 187.832 114.595 187.041 115.813C185.457 118.25 183.477 120.457 181.1 122.436C178.828 124.387 176.231 125.753 173.31 126.536C169.972 127.43 166.709 127.354 163.521 126.308C161.64 129.719 159.627 133.054 157.481 136.312C155.307 139.466 152.935 142.506 150.364 145.431C148.718 147.214 146.768 148.91 144.516 150.52C142.368 152.101 140.123 153.318 137.779 154.17C135.54 154.993 133.266 155.267 130.956 154.992C128.618 154.612 126.501 153.39 124.607 151.326ZM183.222 135.62C180.513 133.439 178.777 130.717 178.015 127.456C177.225 124.089 177.051 120.726 177.492 117.365C177.989 114.213 178.803 111.2 179.933 108.325C181.036 105.346 182.351 102.534 183.878 99.8888C185.482 97.111 187.246 94.514 189.17 92.0977C191.094 89.6813 193.06 87.4215 195.068 85.3181C196.562 83.7997 198.435 82.2356 200.687 80.6259C202.939 79.0161 205.328 77.7054 207.852 76.6936C210.376 75.6818 212.817 75.1954 215.176 75.2343C217.638 75.2453 219.775 76.1263 221.586 77.8772C223.237 79.4475 224.029 81.3597 223.962 83.6138C223.895 85.8679 223.577 88.0215 223.009 90.0744C221.693 94.3406 219.652 98.4093 216.888 102.281C214.096 106.048 210.927 109.245 207.383 111.872C204.665 113.83 201.783 115.385 198.737 116.536C195.691 117.688 192.554 118.081 189.326 117.716C189.007 119.031 188.793 120.319 188.684 121.578C188.65 122.705 188.825 123.776 189.209 124.792C189.593 125.807 190.224 126.7 191.101 127.471C191.951 128.138 193.176 128.537 194.776 128.667C197.635 128.907 200.619 127.94 203.726 125.766C206.833 123.591 209.762 120.962 212.513 117.876C215.369 114.763 217.884 111.63 220.057 108.475C222.307 105.189 224.019 102.606 225.193 100.726C225.727 99.8004 226.248 98.8223 226.755 97.7921C227.338 96.6296 228.043 95.7139 228.87 95.0451C229.725 94.4806 230.597 94.1908 231.488 94.1758C232.378 94.1608 233.22 94.3825 234.014 94.8407C234.808 95.2989 235.421 95.9173 235.853 96.696C236.361 97.3423 236.557 98.0726 236.44 98.8867C236.378 99.9094 236.004 101.016 235.317 102.206C234.706 103.265 234.133 104.257 233.599 105.183C230.641 110 228.304 113.589 226.588 115.95C224.949 118.178 223.411 120.156 221.973 121.883C219.868 124.459 217.227 127.123 214.051 129.875C210.952 132.495 207.622 134.673 204.062 136.409C200.579 138.013 197.018 138.912 193.38 139.104C189.741 139.296 186.355 138.135 183.222 135.62ZM197.202 107.052C200.894 105.392 204.05 102.981 206.669 99.8197C209.288 96.6582 211.343 93.4799 212.835 90.2849C213.418 89.1224 213.726 87.9776 213.76 86.8506C213.898 85.6955 213.664 85.0314 213.058 84.8583C210.542 86.3153 208.265 88.0433 206.229 90.0424C204.193 92.0414 202.304 94.169 200.56 96.4251C197.531 100.144 195.056 104.05 193.134 108.142C194.442 108.016 195.798 107.652 197.202 107.052ZM227.389 96.6158C228.688 94.3671 229.895 92.1986 231.013 90.1102C232.207 87.8895 233.335 85.6307 234.396 83.3336C235.382 81.1688 236.353 78.9519 237.31 76.6828C238.24 74.3094 239.256 71.6332 240.358 68.6544C240.298 65.0925 240.74 61.7318 241.682 58.5722C242.604 55.7536 244.055 53.2404 246.035 51.0327C248.091 48.6927 250.632 47.1174 253.657 46.3068C255.118 45.9155 256.468 45.9452 257.706 46.3959C258.945 46.8466 259.799 47.7361 260.266 49.0643C260.518 50.0031 260.519 50.8415 260.269 51.5792C260.124 52.289 259.808 52.9885 259.322 53.6778C258.808 54.2628 258.228 54.8096 257.581 55.3183C256.935 55.8269 256.355 56.3737 255.841 56.9587C254.375 58.5814 253.344 60.3671 252.748 62.3157C252.256 64.2364 252.039 66.1394 252.097 68.0246C252.228 72.6856 252.856 77.3251 253.982 81.9431C255.079 86.4568 255.968 91.0265 256.649 95.652C257.286 99.2827 257.294 102.859 256.672 106.379C256.127 109.768 255.066 112.904 253.49 115.786C251.914 118.668 249.848 121.178 247.29 123.317C244.705 125.351 241.61 126.739 238.008 127.481C234.954 128.188 232.008 128.25 229.169 127.669C226.302 126.984 223.821 125.86 221.725 124.297C219.497 122.658 217.824 120.59 216.708 118.094C215.46 115.521 214.98 112.687 215.268 109.591C215.35 108.227 215.961 107.169 217.101 106.416C218.137 105.692 219.271 105.332 220.502 105.338C221.601 105.267 222.642 105.603 223.623 106.346C224.577 106.985 225.013 107.986 224.931 109.35C224.783 112.968 225.913 115.516 228.322 116.995C230.626 118.502 233.291 118.85 236.316 118.039C238.716 117.396 240.773 115.895 242.489 113.534C244.176 111.069 245.196 108.616 245.548 106.174C245.741 105.227 245.817 104.257 245.774 103.262C245.703 102.163 245.538 100.921 245.279 99.5371C245.124 98.125 244.847 96.4662 244.449 94.5604C244.022 92.5504 243.535 90.1091 242.989 87.2366C241.727 90.0348 240.422 92.6765 239.075 95.1617C237.833 97.619 236.535 99.8676 235.18 101.908C234.389 103.126 233.391 103.785 232.188 103.883C231.061 103.85 230.02 103.514 229.066 102.875C228.113 102.236 227.43 101.357 227.018 100.237C226.578 99.0134 226.702 97.8062 227.389 96.6158ZM341.12 27.5672C340.822 28.5415 340.047 29.1964 338.796 29.5318C337.544 29.8673 336.501 30.1468 335.666 30.3704C330.325 32.1369 325.103 33.9276 319.999 35.7425C314.894 37.5574 309.87 39.4626 304.926 41.4582C302.032 46.9298 299.596 51.6078 297.618 55.4921C295.639 59.3764 293.863 62.7596 292.287 65.6416C290.815 68.4957 289.535 71.0191 288.445 73.2118C287.356 75.4046 286.356 77.5172 285.447 79.5497C283.65 83.2738 281.842 87.1683 280.025 91.2333C278.283 95.1661 277.237 99.1919 276.888 103.311C276.821 105.565 277.232 106.684 278.123 106.669C278.985 106.55 279.945 105.958 281.001 104.892C282.161 103.798 283.242 102.614 284.242 101.34C285.214 99.9615 285.815 99.0738 286.044 98.677C287.141 96.9295 288.287 94.9454 289.481 92.7247C290.779 90.4761 292.608 87.0789 294.968 82.5332C295.398 81.6353 295.867 80.6712 296.373 79.641C296.88 78.6107 297.481 77.723 298.175 76.9778C299.384 75.6476 300.817 75.1519 302.473 75.4908C304.233 75.8018 305.442 76.7639 306.098 78.3771C306.453 79.288 306.521 80.1645 306.299 81.0065C306.154 81.7163 305.852 82.468 305.394 83.2617C304.123 85.6146 303.044 87.6369 302.156 89.3285C301.267 91.0201 300.441 92.5272 299.677 93.8499C299.018 95.1447 298.435 96.3072 297.928 97.3374C297.394 98.2634 296.859 99.1893 296.325 100.115C294.52 103.394 292.36 106.6 289.846 109.734C287.407 112.735 284.234 114.871 280.326 116.142C277.043 117.245 274.013 116.995 271.236 115.391C268.458 113.788 266.768 111.445 266.166 108.364C265.564 105.283 265.588 102.034 266.238 98.6172C266.783 95.2285 267.698 91.9646 268.981 88.8256C270.132 85.6101 271.124 83.0522 271.956 81.152C274.558 75.4234 277.24 69.7851 280.003 64.2371C282.841 58.5569 285.76 52.967 288.759 47.4675L280.049 50.6398C279.242 50.9677 278.45 51.3479 277.671 51.7801C276.865 52.108 276.036 51.9386 275.187 51.2718C273.119 49.8133 272.157 47.8908 272.3 45.5045C272.305 44.2731 272.711 43.4934 273.518 43.1655C274.401 42.7053 275.336 42.2311 276.323 41.7429C276.921 41.4709 277.571 41.1849 278.274 40.8849C279.08 40.5569 280.186 40.093 281.591 39.493C282.995 38.893 284.855 38.1151 287.171 37.1592C289.563 36.0711 292.671 34.7351 296.495 33.1514C298.529 29.4757 300.577 25.8522 302.639 22.2808C304.777 18.5772 307.01 15.0161 309.336 11.5974C309.899 10.7758 310.409 9.96823 310.867 9.1746C311.325 8.38096 311.85 7.62551 312.44 6.90825C313.031 6.19098 313.705 5.78667 314.463 5.69532C315.221 5.60397 315.969 5.68308 316.707 5.93265C318.022 6.2511 319.213 6.9384 320.278 7.99457C321.448 9.0228 322.111 10.2429 322.266 11.655C322.28 12.5455 322.007 13.4015 321.444 14.2231C320.958 14.9124 320.524 15.5877 320.142 16.2491L313.945 26.2953C317.874 24.6836 321.375 23.3541 324.449 22.3069C327.495 21.1553 330.45 20.0839 333.315 19.0926C333.837 18.9528 334.449 18.733 335.151 18.433C335.853 18.133 336.493 18.0175 337.071 18.0863C338.093 18.1477 338.873 18.5538 339.41 19.3045C340.05 20.0272 340.511 20.9102 340.79 21.9534C341.07 22.9966 341.245 24.0677 341.316 25.1668C341.359 26.1616 341.294 26.9618 341.12 27.5672ZM335.294 82.2939C333.191 86.547 331.143 90.1706 329.15 93.1644C327.157 96.1583 325 98.7488 322.679 100.936C320.073 103.311 316.99 105.367 313.431 107.104C309.871 108.841 306.341 109.227 302.84 108.265C300.39 107.467 298.601 106.214 297.472 104.504C296.211 102.717 295.353 100.767 294.898 98.6527C294.415 96.434 294.259 94.1836 294.431 91.9016C294.574 89.5152 294.839 87.3756 295.226 85.4829C296.638 79.0669 298.787 72.9005 301.674 66.9837C304.561 61.0669 308.301 56.0395 312.895 51.9016C315.445 49.3176 318.49 47.3278 322.029 45.9321C325.645 44.4042 329.175 44.0174 332.62 44.7716C334.937 45.4923 336.727 46.7459 337.988 48.5323C339.249 50.3187 340.069 52.3352 340.447 54.5819C340.902 56.6962 341.058 58.9466 340.915 61.333C340.744 63.615 340.45 65.6503 340.035 67.4387L338.82 72.2926C342.965 71.0702 346.148 68.7636 348.37 65.373C348.981 64.3148 349.634 63.4131 350.329 62.6679C351.128 61.8947 352.196 61.4969 353.531 61.4744C354.763 61.4799 355.831 61.9204 356.736 62.7958C357.614 63.567 358.102 64.5543 358.201 65.7577C358.328 67.0655 357.943 68.3425 357.047 69.5889C356.228 70.703 355.446 71.7509 354.703 72.7327C352.112 75.9986 349.127 78.4197 345.748 79.996C342.341 81.468 338.856 82.2339 335.294 82.2939ZM305.829 94.382C305.762 96.6361 306.021 98.0202 306.606 98.5343C307.295 99.0205 308.096 99.0856 309.006 98.7297C309.994 98.2415 311.015 97.4646 312.072 96.3989C313.128 95.3333 314.042 94.3617 314.813 93.4842C316.765 91.1722 318.48 88.8117 319.959 86.4029C321.41 83.8897 322.743 81.3523 323.957 78.7907C321.709 77.4925 319.821 75.8738 318.296 73.9346C316.846 71.8632 315.696 69.6558 314.844 67.3123C312.505 71.5171 310.405 75.9929 308.547 80.7397C306.764 85.3543 305.858 89.9017 305.829 94.382ZM322.69 57.1598C322.649 57.8416 322.716 58.7181 322.891 59.7892C323.038 60.7561 323.28 61.8654 323.615 63.1172C323.923 64.2648 324.4 65.4225 325.049 66.5905C325.697 67.7585 326.474 68.7802 327.38 69.6557C328.261 67.5189 328.804 65.5842 329.011 63.8517C329.294 61.9869 329.448 60.2684 329.474 58.6961C329.424 57.2561 329.197 56.1989 328.792 55.5246C328.388 54.8502 327.859 54.5448 327.205 54.6081C326.523 54.5672 325.755 54.829 324.9 55.3936C324.121 55.8258 323.384 56.4146 322.69 57.1598ZM349.334 63.9409C351.653 60.077 353.749 56.2169 355.623 52.3605C357.601 48.4762 359.513 44.5537 361.359 40.593C361.455 40.1198 361.618 39.6848 361.847 39.288C362.153 38.7589 362.354 38.2578 362.451 37.7846C361.963 36.7973 361.603 35.6638 361.372 34.384C361.245 33.0762 361.251 31.8449 361.388 30.6899C361.63 29.5069 362.085 28.4906 362.752 27.6411C363.495 26.6593 364.479 25.9485 365.702 25.5088C367.239 24.9852 368.721 25.0912 370.148 25.8269C371.575 26.5627 372.603 27.685 373.231 29.1939C373.615 30.2091 373.79 31.2803 373.756 32.4073C373.695 33.4301 373.529 34.4807 373.259 35.5594L375.19 35.8806C376.951 36.1915 378.575 36.2035 380.063 35.9165C381.628 35.4972 383.253 35.5092 384.937 35.9524C386.517 36.4236 387.815 37.3055 388.832 38.5983C389.954 39.8631 390.147 41.209 389.411 42.6361C387.156 47.1538 385.119 51.4452 383.301 55.5102C381.56 59.4429 379.936 63.3999 378.431 67.381C378.182 68.1187 377.85 69.3818 377.434 71.1702C376.991 72.8543 376.652 74.5105 376.418 76.1387C376.259 77.6346 376.344 78.7859 376.672 79.5925C377.104 80.3711 377.991 80.1335 379.332 78.8797C382.015 76.372 384.411 73.2142 386.521 69.4062C388.632 65.5983 391.367 60.7843 394.727 54.9643C395.157 54.0663 395.64 53.1544 396.174 52.2285C396.681 51.1983 397.296 50.3627 398.018 49.7218C399.52 48.6487 401.102 48.5042 402.766 49.2883C404.506 49.9402 405.457 51.1947 405.619 53.052C405.69 54.1511 405.458 55.1636 404.924 56.0895C404.466 56.8832 404.021 57.729 403.591 58.6269C402.216 61.0078 401.047 63.1102 400.082 64.9341C399.089 66.6536 398.211 68.1748 397.447 69.4975C396.656 70.7159 395.954 71.8542 395.343 72.9124C394.809 73.8383 394.274 74.7642 393.74 75.6901C392.872 77.0408 391.965 78.4576 391.021 79.9405C390.049 81.3191 388.958 82.6736 387.749 84.0038C386.645 85.306 385.394 86.4798 383.997 87.525C382.572 88.4659 381.025 89.1599 379.356 89.6072C377.165 90.1942 375.175 90.28 373.387 89.8648C371.57 89.3452 370.063 88.5191 368.865 87.3866C367.639 86.1497 366.671 84.6204 365.959 82.7985C365.351 80.9487 365.057 79.015 365.075 76.9975C365.028 72.6495 365.743 68.4328 367.22 64.3473C368.802 60.2339 370.463 56.2108 372.204 52.2781C372.683 51.1435 373.11 50.023 373.484 48.9164C373.963 47.7818 374.493 46.6333 375.076 45.4708C374.395 45.4299 373.528 45.3265 372.478 45.1608C371.531 44.9672 370.741 44.7316 370.108 44.4541C369.629 45.5886 369.112 46.7893 368.557 48.0561C367.974 49.2186 367.277 50.5795 366.465 52.1388C365.757 53.6702 364.844 55.4801 363.727 57.5685C362.714 59.629 361.419 62.1002 359.843 64.9822C359.385 65.7759 358.941 66.6217 358.511 67.5196C358.08 68.4176 357.504 69.187 356.781 69.8279C355.801 70.7613 354.748 71.2113 353.621 71.1779C352.466 71.0401 351.463 70.6378 350.614 69.971C349.764 69.3041 349.2 68.4491 348.92 67.4059C348.613 66.2584 348.751 65.1034 349.334 63.9409ZM396.553 51.2885C397.851 49.0399 399.059 46.8714 400.176 44.783C401.37 42.5623 402.498 40.3034 403.56 38.0064C404.545 35.8416 405.516 33.6247 406.474 31.3556C407.403 28.9822 408.419 26.306 409.522 23.3272C409.462 19.7653 409.903 16.4046 410.845 13.245C411.767 10.4264 413.218 7.91322 415.198 5.70551C417.255 3.36554 419.796 1.79024 422.821 0.979618C424.281 0.588284 425.631 0.617972 426.87 1.06868C428.109 1.5194 428.962 2.40886 429.43 3.73706C429.681 4.67595 429.682 5.51425 429.433 6.25199C429.287 6.96176 428.972 7.66131 428.486 8.35062C427.972 8.93562 427.391 9.48243 426.745 9.99106C426.098 10.4997 425.518 11.0465 425.004 11.6315C423.538 13.2542 422.507 15.0399 421.911 16.9885C421.42 18.9092 421.203 20.8122 421.261 22.6974C421.391 27.3584 422.02 31.9979 423.145 36.6159C424.243 41.1296 425.132 45.6993 425.812 50.3248C426.45 53.9555 426.457 57.5314 425.836 61.0523C425.29 64.4409 424.229 67.5763 422.654 70.4583C421.078 73.3404 419.011 75.8508 416.454 77.9896C413.868 80.0242 410.774 81.4123 407.171 82.154C404.118 82.8603 401.172 82.923 398.333 82.342C395.465 81.6567 392.984 80.5327 390.888 78.9699C388.66 77.3307 386.988 75.263 385.872 72.7668C384.623 70.1943 384.143 67.3599 384.432 64.2638C384.514 62.9001 385.125 61.8419 386.265 61.0892C387.3 60.3645 388.434 60.0048 389.665 60.0103C390.764 59.9394 391.805 60.2756 392.787 61.0188C393.741 61.6577 394.177 62.659 394.095 64.0226C393.946 67.6404 395.076 70.1887 397.485 71.6677C399.789 73.1746 402.454 73.5227 405.48 72.7121C407.879 72.0692 409.936 70.5675 411.652 68.207C413.34 65.7423 414.359 63.2888 414.711 60.8465C414.905 59.9001 414.98 58.9295 414.937 57.9347C414.866 56.8356 414.701 55.594 414.442 54.2099C414.288 52.7978 414.011 51.1389 413.612 49.2332C413.185 47.2232 412.699 44.7819 412.153 41.9094C410.89 44.7076 409.585 47.3493 408.239 49.8345C406.996 52.2918 405.698 54.5404 404.344 56.5804C403.552 57.7988 402.555 58.4574 401.351 58.5562C400.224 58.5228 399.184 58.1866 398.23 57.5477C397.276 56.9089 396.593 56.0296 396.181 54.9101C395.742 53.6862 395.865 52.479 396.553 51.2885Z" fill="#FDFDFC"/>
</svg>
