<svg width="120" height="115" viewBox="0 0 120 115" fill="none" xmlns="http://www.w3.org/2000/svg">
<g clip-path="url(#clip0)">
<path d="M27.2482 114.686V37.3077H1.52913V114.686H27.2482ZM14.392 26.7366C23.3607 26.7366 28.9433 20.7948 28.9433 13.3695C28.7762 5.77686 23.361 0 14.5622 0C5.76472 0 0.0117188 5.77697 0.0117188 13.3695C0.0117188 20.7951 5.59292 26.7366 14.2241 26.7366H14.3912H14.392ZM41.4836 114.686H67.2027V71.4743C67.2027 69.1616 67.3698 66.8514 68.049 65.1982C69.9083 60.5776 74.1401 55.792 81.2448 55.792C90.5515 55.792 94.2746 62.8878 94.2746 73.2899V114.686H119.992V70.3176C119.992 46.5499 107.304 35.491 90.3821 35.491C76.5077 35.491 70.4159 43.2463 67.0316 48.5284H67.2033V37.306H41.4842C41.8217 44.5668 41.4842 114.685 41.4842 114.685L41.4836 114.686Z" fill="white"/>
</g>
<defs>
<clipPath id="clip0">
<rect width="120" height="114.686" fill="white"/>
</clipPath>
</defs>
</svg>
