<svg width="631" height="512" viewBox="0 0 631 512" fill="none" xmlns="http://www.w3.org/2000/svg">
<path d="M525.863 175.288C531.613 169.537 538.288 165.327 545.887 162.657C553.486 159.987 561.29 158.652 569.3 158.652C577.925 158.652 585.935 160.09 593.329 162.965C600.722 165.84 607.089 170.051 612.428 175.596C617.768 181.141 622.081 187.507 625.367 194.696C628.653 201.884 630.296 209.893 630.296 218.724C630.296 226.734 628.756 234.538 625.675 242.137C622.594 249.736 618.179 256.411 612.428 262.161L392.164 483.042L276.024 512L304.982 395.86L525.863 175.288ZM585.011 234.436C589.324 230.123 591.48 224.886 591.48 218.724C591.48 212.152 589.426 207.018 585.319 203.321C581.211 199.625 575.872 197.673 569.3 197.468C566.424 197.468 563.652 197.879 560.982 198.7C558.312 199.522 555.95 200.959 553.897 203.013L340.717 416.193L330.243 457.781L371.832 447.307L585.011 234.436ZM630.912 0V138.628C624.956 134.315 618.692 130.824 612.12 128.154C605.548 125.484 598.668 123.225 591.48 121.377V81.3285L315.456 219.032L39.432 81.3285V354.888H290.195L250.763 394.32H0V0H630.912ZM315.456 175.288L586.859 39.432H44.0529L315.456 175.288Z" fill="#222222"/>
</svg>
