<svg width="512" height="512" viewBox="0 0 512 512" fill="none" xmlns="http://www.w3.org/2000/svg">
<path d="M390.759 305.472C398.005 305.472 405.066 306.866 411.941 309.653C418.816 312.44 424.855 316.435 430.058 321.637C433.96 325.539 438.326 329.627 443.157 333.901C447.988 338.175 453.098 342.727 458.487 347.558C463.875 352.389 468.892 357.406 473.537 362.609C478.183 367.811 482.549 373.107 486.637 378.495C490.725 383.884 493.791 389.644 495.834 395.776C497.878 401.907 499.086 408.039 499.458 414.171C499.458 421.418 498.064 428.478 495.277 435.353C492.49 442.228 488.495 448.267 483.292 453.47C473.816 462.946 465.269 471.308 457.65 478.554C450.032 485.801 442.135 491.932 433.96 496.949C425.784 501.966 416.586 505.682 406.367 508.098C396.147 510.513 384.163 511.814 370.413 512C350.159 512 329.349 508.841 307.98 502.524C286.612 496.206 265.337 487.473 244.155 476.324C222.972 465.176 202.254 451.89 182.001 436.468C161.748 421.046 142.609 404.23 124.586 386.021C106.562 367.811 89.8392 348.58 74.417 328.327C58.9947 308.073 45.8951 287.448 35.1181 266.452C24.3411 245.455 15.7939 224.366 9.47632 203.183C3.15877 182.001 0 161.562 0 141.866C0 127.745 1.20777 115.667 3.6233 105.633C6.03883 95.5993 9.75503 86.4946 14.7719 78.319C19.7888 70.1433 25.9205 62.2464 33.1671 54.6282C40.4137 47.01 48.8681 38.3698 58.5302 28.7077C63.7329 23.505 69.7717 19.5101 76.6467 16.7229C83.5217 13.9358 90.5825 12.5422 97.8291 12.5422C107.12 12.5422 116.038 15.0506 124.586 20.0675C133.133 25.0844 141.402 31.2161 149.391 38.4627C157.381 45.7093 164.721 53.3275 171.41 61.3174C178.099 69.3072 184.417 76.1822 190.363 81.9423C195.565 87.145 199.56 93.1838 202.347 100.059C205.134 106.934 206.528 113.995 206.528 121.241C206.528 128.488 205.32 134.991 202.905 140.751C200.489 146.511 197.516 151.621 193.986 156.081C190.455 160.54 186.553 164.721 182.28 168.623C178.006 172.525 174.104 176.241 170.574 179.771C167.043 183.302 163.977 186.739 161.376 190.084C158.775 193.428 157.567 197.145 157.753 201.232C157.753 203.462 159.425 206.993 162.77 211.824C166.114 216.655 170.76 222.415 176.705 229.104C182.651 235.793 189.248 242.947 196.494 250.565C203.741 258.183 211.545 266.08 219.906 274.256C228.268 282.431 236.351 290.328 244.155 297.947C251.959 305.565 259.484 312.811 266.731 319.686C273.977 326.561 280.109 332.414 285.126 337.245C290.143 342.077 294.045 345.793 296.832 348.394C300.734 352.296 305.379 354.247 310.768 354.247C314.67 354.247 318.293 353.039 321.637 350.624C324.982 348.208 328.42 345.235 331.95 341.705C335.48 338.175 339.104 334.273 342.82 329.999C346.536 325.725 350.81 321.823 355.641 318.293C360.472 314.762 365.582 311.697 370.97 309.095C376.359 306.494 382.955 305.286 390.759 305.472ZM370.413 476.324C381.747 476.324 391.223 475.302 398.842 473.259C406.46 471.215 413.428 468.056 419.745 463.782C426.063 459.509 432.009 454.492 437.583 448.732C443.157 442.971 449.939 436.189 457.929 428.385C461.831 424.483 463.782 419.838 463.782 414.45C463.782 412.034 462.296 408.597 459.323 404.137C456.35 399.678 452.634 394.661 448.174 389.087C443.715 383.512 438.605 377.938 432.845 372.364C427.085 366.789 421.51 361.68 416.122 357.034C410.733 352.389 405.809 348.58 401.35 345.607C396.891 342.634 393.36 341.148 390.759 341.148C386.857 341.148 383.141 342.355 379.61 344.771C376.08 347.186 372.642 350.159 369.298 353.69C365.953 357.22 362.33 361.122 358.428 365.396C354.526 369.669 350.252 373.571 345.607 377.102C340.962 380.632 335.852 383.698 330.278 386.299C324.703 388.901 318.2 390.108 310.768 389.923C303.335 389.923 296.274 388.529 289.585 385.742C282.896 382.955 276.857 378.867 271.469 373.478L138.521 240.531C133.319 235.329 129.324 229.383 126.537 222.694C123.75 216.004 122.263 208.851 122.077 201.232C122.077 193.986 123.285 187.575 125.701 182.001C128.116 176.427 131.089 171.224 134.619 166.393C138.15 161.562 142.052 157.381 146.326 153.851C150.599 150.32 154.501 146.604 158.032 142.702C161.562 138.8 164.628 135.363 167.229 132.39C169.831 129.417 171.038 125.701 170.852 121.241C170.852 118.826 169.366 115.388 166.393 110.929C163.42 106.469 159.704 101.545 155.244 96.1568C150.785 90.7683 145.675 85.194 139.915 79.4339C134.155 73.6737 128.581 68.564 123.192 64.1045C117.804 59.6451 112.787 55.836 108.142 52.6772C103.496 49.5184 100.059 48.0319 97.8291 48.2177C92.2548 48.2177 87.5166 50.1688 83.6146 54.0708C75.9964 61.689 69.2143 68.3781 63.2684 74.1383C57.3224 79.8984 52.3056 85.8443 48.2177 91.976C44.1299 98.1078 41.0641 105.076 39.0201 112.88C36.9762 120.684 35.8614 130.067 35.6756 141.03C35.6756 158.868 38.5556 177.263 44.3157 196.216C50.0758 215.168 58.0657 234.307 68.2852 253.631C78.5048 272.955 90.7683 291.722 105.076 309.931C119.383 328.141 134.712 345.514 151.064 362.051C167.415 378.588 184.881 393.825 203.462 407.76C222.043 421.696 240.81 433.774 259.763 443.993C278.715 454.213 297.575 462.11 316.342 467.684C335.109 473.259 353.132 476.139 370.413 476.324ZM463.782 226.596H285.404V48.2177H321.08V165.557L486.916 0L512 25.0844L346.443 190.92H463.782V226.596Z" fill="#222222"/>
</svg>
