<svg width="451" height="196" viewBox="0 0 451 196" fill="none" xmlns="http://www.w3.org/2000/svg">
<path d="M100.444 81.2086C99.6451 81.9818 98.7342 82.3377 97.7115 82.2763C96.6887 82.2149 95.7321 82.1917 94.8416 82.2067C90.7023 82.1977 86.3897 82.7942 81.904 83.9962C77.4182 85.1981 73.0582 86.8695 68.824 89.0103C64.5619 91.0469 60.5681 93.4587 56.8425 96.2459C53.089 98.9288 49.9269 101.733 47.3564 104.658C45.6334 106.573 44.0846 108.721 42.7099 111.102C41.3074 113.379 40.6146 115.8 40.6316 118.367C40.5777 119.835 40.8572 120.879 41.4701 121.497C42.1595 121.983 42.9633 122.271 43.8817 122.36C44.7722 122.345 45.739 122.198 46.7822 121.918C47.9018 121.507 48.8509 121.085 49.6296 120.652C54.4617 118.24 58.9185 116.095 63 114.219C67.1858 112.314 71.7274 111.321 76.625 111.239C82.128 111.33 86.7668 112.994 90.5413 116.231C94.3922 119.336 96.846 123.486 97.9027 128.682C98.868 133.119 98.8628 137.481 97.887 141.768C96.9876 145.922 95.5489 149.942 93.5708 153.826C89.0112 163.098 82.8364 171.349 75.0464 178.58C67.3327 185.678 58.4303 190.635 48.3393 193.451C40.6475 195.624 33.1382 196.182 25.8113 195.127C18.4565 193.967 11.8234 191.328 5.9121 187.209C5.11847 186.751 4.24472 186.202 3.29086 185.564C2.44132 184.897 1.80042 184.174 1.36816 183.395C0.935903 182.617 0.764443 181.768 0.853784 180.85C0.915172 179.827 1.12281 178.933 1.47669 178.167C2.94065 174.868 5.5439 173.108 9.28645 172.888C10.2812 172.845 11.1512 173.171 11.8965 173.866C12.6417 174.56 13.4111 175.137 14.2047 175.595C16.8297 177.463 19.6177 178.897 22.5686 179.895C25.5195 180.893 28.5431 181.537 31.6392 181.825C34.7354 182.114 37.7999 182.075 40.8326 181.71C43.8654 181.344 46.7621 180.68 49.5229 179.717C53.8205 178.23 58.0165 176.155 62.1109 173.492C66.2817 170.698 70.0799 167.556 73.5054 164.066C77.0074 160.444 79.9942 156.569 82.4659 152.441C84.9376 148.313 86.6092 144.119 87.4807 139.86C88.2069 136.311 88.2384 133.508 87.575 131.449C86.8837 129.287 85.6922 127.761 84.0006 126.872C82.2811 125.88 80.2039 125.43 77.7691 125.523C75.3343 125.617 72.7887 126.131 70.1323 127.066C67.8931 127.89 65.6959 128.87 63.5407 130.007C61.3854 131.143 59.2021 132.175 56.991 133.103C54.7798 134.031 52.5127 134.751 50.1897 135.261C47.8667 135.772 45.4561 135.747 42.9579 135.186C39.9102 134.661 37.5088 133.628 35.7538 132.085C34.0752 130.411 32.8381 128.506 32.0424 126.371C31.2188 124.132 30.8125 121.781 30.8235 119.318C30.9108 116.723 31.3009 114.215 31.9937 111.793C33.532 106.685 35.7456 102.011 38.6346 97.7704C41.6 93.3979 45.1084 89.3831 49.1599 85.7259C57.0059 78.7039 65.9706 73.5625 76.0542 70.3015C83.4814 67.976 90.6982 67.1604 97.7046 67.8546C98.8596 67.9924 99.8582 68.1721 100.7 68.3937C101.647 68.5873 102.378 69.23 102.894 70.3216C103.738 72.2198 103.928 74.1814 103.465 76.2064C103.001 78.2315 101.994 79.8988 100.444 81.2086ZM145.212 138.815C143.109 143.068 141.061 146.692 139.068 149.685C137.075 152.679 134.918 155.27 132.597 157.457C129.991 159.832 126.908 161.888 123.348 163.625C119.788 165.362 116.258 165.748 112.757 164.786C110.308 163.988 108.518 162.735 107.389 161.025C106.128 159.238 105.27 157.288 104.815 155.174C104.332 152.955 104.177 150.705 104.348 148.423C104.491 146.036 104.756 143.897 105.144 142.004C106.555 135.588 108.704 129.422 111.591 123.505C114.478 117.588 118.219 112.561 122.812 108.423C125.362 105.839 128.407 103.849 131.946 102.453C135.562 100.925 139.092 100.538 142.537 101.293C144.854 102.013 146.644 103.267 147.905 105.053C149.167 106.84 149.986 108.856 150.365 111.103C150.819 113.217 150.975 115.468 150.832 117.854C150.661 120.136 150.368 122.171 149.952 123.96L148.737 128.814C152.882 127.591 156.065 125.285 158.288 121.894C158.899 120.836 159.551 119.934 160.246 119.189C161.045 118.416 162.113 118.018 163.448 117.995C164.68 118.001 165.748 118.441 166.654 119.317C167.531 120.088 168.019 121.075 168.118 122.279C168.245 123.586 167.86 124.864 166.964 126.11C166.145 127.224 165.363 128.272 164.62 129.254C162.029 132.52 159.044 134.941 155.665 136.517C152.258 137.989 148.773 138.755 145.212 138.815ZM115.746 150.903C115.679 153.157 115.938 154.541 116.523 155.055C117.213 155.541 118.013 155.607 118.924 155.251C119.911 154.763 120.933 153.986 121.989 152.92C123.045 151.854 123.959 150.883 124.73 150.005C126.682 147.693 128.398 145.333 129.876 142.924C131.327 140.411 132.66 137.873 133.875 135.312C131.626 134.013 129.739 132.395 128.213 130.456C126.763 128.384 125.613 126.177 124.761 123.833C122.422 128.038 120.323 132.514 118.464 137.261C116.681 141.875 115.776 146.423 115.746 150.903ZM132.607 113.681C132.566 114.363 132.633 115.239 132.808 116.31C132.956 117.277 133.197 118.386 133.532 119.638C133.84 120.786 134.318 121.944 134.966 123.111C135.614 124.279 136.391 125.301 137.297 126.177C138.178 124.04 138.722 122.105 138.928 120.373C139.211 118.508 139.366 116.789 139.392 115.217C139.341 113.777 139.114 112.72 138.71 112.046C138.305 111.371 137.776 111.066 137.122 111.129C136.44 111.088 135.672 111.35 134.817 111.915C134.038 112.347 133.302 112.936 132.607 113.681ZM197.633 112.861C198.064 111.963 198.508 111.117 198.966 110.323C199.501 109.397 200.195 108.652 201.05 108.088C202.58 107.119 204.124 107.04 205.683 107.853C207.215 108.56 208.048 109.791 208.182 111.544C208.225 112.538 208.031 113.485 207.601 114.383C207.171 115.281 206.726 116.127 206.268 116.92C202.429 123.875 198.843 129.476 195.509 133.724C192.174 137.971 189.086 141.259 186.243 143.586C183.401 145.913 180.794 147.45 178.422 148.197C176.051 148.944 173.975 149.333 172.194 149.363C169.731 149.352 167.64 148.85 165.921 147.857C164.069 146.788 162.564 145.346 161.407 143.532C160.222 141.613 159.413 139.426 158.978 136.971C158.44 134.544 158.238 131.914 158.374 129.082C158.661 124.31 159.375 119.255 160.516 113.917C161.762 108.552 163.244 103.235 164.963 97.9668C166.682 92.6984 168.576 87.6628 170.643 82.8601C172.682 77.953 174.691 73.5574 176.669 69.673C178.8 65.5242 181.115 61.4377 183.615 57.4136C186.087 53.2852 189.011 49.5946 192.388 46.3417C193.549 45.248 194.97 44.0845 196.652 42.8512C198.439 41.5898 200.243 40.6033 202.065 39.8915C203.991 39.1517 205.872 38.8712 207.709 39.0499C209.622 39.0963 211.404 39.9046 213.055 41.4749C214.81 43.0173 215.824 44.9257 216.098 47.2003C216.449 49.3426 216.382 51.5967 215.898 53.9626C215.49 56.1963 214.86 58.4337 214.007 60.6748C213.126 62.8116 212.345 64.6979 211.665 66.3336C209.618 70.7954 207.359 75.0905 204.887 79.2189C202.492 83.215 199.926 87.2009 197.19 91.1766C195.398 93.6693 193.45 96.204 191.345 98.7805C189.344 101.329 187.278 103.84 185.145 106.312C183.116 108.756 181.008 111.11 178.819 113.374C176.707 115.505 174.643 117.4 172.627 119.058C172.072 120.325 171.622 121.564 171.275 122.775C170.901 123.881 170.579 124.974 170.309 126.052C169.381 130.102 169.395 133.285 170.351 135.601C171.307 137.916 172.533 139.153 174.029 139.311C175.184 139.449 176.603 138.901 178.285 137.668C180.071 136.406 182.006 134.658 184.091 132.422C186.147 130.082 188.301 127.269 190.551 123.983C192.905 120.669 195.266 116.961 197.633 112.861ZM184.596 92.3709C187.979 87.8866 191.177 83.3399 194.191 78.7308C197.176 74.0174 199.884 69.0991 202.313 63.976C203.298 61.8112 204.193 59.7265 204.997 57.722C205.878 55.5851 206.457 53.3617 206.732 51.0517C206.821 50.1333 206.605 49.744 206.084 49.8837C205.638 49.8912 205.04 50.1632 204.29 50.6998C203.643 51.2085 202.921 51.8494 202.122 52.6225C201.322 53.3957 200.718 54.0608 200.308 54.6179C197.05 58.7333 194.123 63.0396 191.527 67.5369C189.007 71.9019 186.765 76.4718 184.802 81.2465C183.442 84.5179 182.135 87.7753 180.879 91.0187C179.624 94.2621 178.501 97.5819 177.51 100.978C178.691 99.5435 179.886 98.1612 181.095 96.8309C182.276 95.3964 183.443 93.9097 184.596 92.3709ZM237.603 133.178C235.725 133.681 233.802 133.805 231.833 133.55C229.94 133.163 228.301 132.26 226.914 130.843C226.169 130.148 225.581 129.411 225.148 128.633C224.82 127.826 224.492 127.02 224.164 126.213C222.324 128.942 220.105 131.717 217.506 134.538C216.269 135.764 214.876 137.032 213.326 138.341C211.776 139.651 209.958 140.586 207.872 141.145C206.098 141.62 204.279 141.716 202.415 141.433C200.522 141.046 198.896 140.195 197.538 138.882C195.832 137.103 194.841 135.076 194.567 132.802C194.161 130.451 194.11 128.172 194.413 125.967C194.729 122.975 195.526 119.687 196.801 116.103C198.049 112.414 199.481 108.788 201.098 105.224C202.791 101.528 204.54 98.0401 206.345 94.7613C208.226 91.3501 209.93 88.3218 211.458 85.6764C212.02 84.8548 212.569 83.9811 213.103 83.0552C213.714 81.997 214.528 81.276 215.543 80.8921C217.316 80.4169 218.972 80.7558 220.511 81.9088C222.022 82.9575 222.945 84.1078 223.281 85.3596C223.672 86.8201 223.524 88.1456 222.837 89.336C220.4 94.014 217.936 98.5876 215.444 103.057C213.056 107.498 210.881 112.106 208.918 116.881C208.258 118.176 207.641 119.627 207.065 121.235C206.49 122.843 206.005 124.37 205.61 125.818C205.215 127.265 205.001 128.553 204.968 129.68C204.906 130.702 205.126 131.314 205.627 131.515C206.128 131.717 206.935 131.389 208.047 130.532C209.159 129.675 210.729 128.024 212.758 125.58C216.453 121.011 219.752 116.214 222.654 111.188C225.528 106.057 228.256 100.798 230.837 95.4102L239.468 78.1712C239.898 77.2732 240.38 76.3613 240.915 75.4354C241.554 74.4815 242.381 73.8127 243.396 73.4288C245.17 72.9536 246.76 73.2543 248.166 74.331C249.573 75.4076 250.576 76.6482 251.176 78.0528C251.4 78.8874 251.477 79.5934 251.408 80.1709C251.311 80.6441 251.034 81.2775 250.576 82.0711C249.534 84.0273 248.441 85.9974 247.296 87.9815C246.226 89.8333 245.199 91.8416 244.214 94.0063C242.083 98.1552 240.185 102.13 238.52 105.93C236.931 109.598 235.802 113.311 235.131 117.069C234.958 117.674 234.827 118.436 234.738 119.355C234.648 120.273 234.649 121.111 234.741 121.87C234.832 122.628 235.09 123.174 235.515 123.507C236.016 123.708 236.756 123.342 237.736 122.409C238.897 121.315 239.925 120.145 240.821 118.899C241.717 117.652 242.599 116.354 243.467 115.003L253.089 98.3368C253.547 97.5432 254.044 96.6834 254.578 95.7575C255.085 94.7273 255.7 93.8917 256.422 93.2508C257.924 92.1777 259.506 92.0331 261.17 92.8173C262.806 93.4971 263.757 94.7517 264.023 96.581C264.094 97.6801 263.862 98.6926 263.328 99.6185C262.87 100.412 262.425 101.258 261.995 102.156C260.239 105.198 258.559 108.108 256.955 110.886C255.455 113.636 253.838 116.361 252.102 119.063C251.234 120.413 250.328 121.83 249.383 123.313C248.411 124.692 247.32 126.046 246.111 127.376C245.007 128.679 243.756 129.852 242.359 130.897C240.962 131.943 239.377 132.703 237.603 133.178ZM298.688 46.0347C298.39 47.0091 297.657 47.8204 296.489 48.4688C295.321 49.1172 292.835 50.0628 289.031 51.3057C286.137 56.7773 283.701 61.4553 281.723 65.3396C279.849 69.1959 278.176 72.5512 276.705 75.4052C275.338 78.2314 274.109 80.7408 273.02 82.9335C272.034 85.0983 271.087 87.197 270.178 89.2295C268.381 92.9535 266.73 96.8062 265.225 100.787C263.797 104.636 262.907 108.62 262.557 112.739C262.491 114.993 262.902 116.113 263.793 116.098C264.655 115.978 265.615 115.386 266.671 114.32C267.831 113.227 268.912 112.043 269.912 110.768C270.884 109.39 271.485 108.502 271.714 108.105C272.811 106.358 273.957 104.374 275.151 102.153C276.449 99.9043 278.278 96.5071 280.638 91.9614C281.068 91.0635 281.537 90.0994 282.043 89.0692C282.55 88.0389 283.151 87.1512 283.845 86.406C285.054 85.0758 286.487 84.5801 288.143 84.919C289.903 85.23 291.112 86.1921 291.767 87.8053C292.123 88.7162 292.19 89.5927 291.969 90.4347C291.824 91.1445 291.522 91.8962 291.064 92.6899C289.793 95.0428 288.714 97.0651 287.826 98.7567C286.937 100.448 286.111 101.955 285.347 103.278C284.688 104.573 284.105 105.735 283.598 106.766C283.064 107.692 282.529 108.617 281.995 109.543C280.19 112.822 278.03 116.028 275.515 119.162C273.077 122.163 269.904 124.3 265.996 125.57C262.713 126.673 259.683 126.423 256.906 124.819C254.128 123.216 252.386 120.887 251.68 117.834C250.973 114.781 250.893 111.56 251.438 108.171C251.88 104.81 252.69 101.575 253.869 98.4634C254.915 95.2759 255.855 92.732 256.687 90.8318C259.289 85.1031 261.735 79.4164 264.024 73.7716C266.417 68.0989 269.113 62.5128 272.112 57.0132L263.402 60.1856C262.596 60.5135 261.803 60.8936 261.025 61.3259C260.218 61.6538 259.39 61.4844 258.54 60.8175C256.472 59.359 255.51 57.4366 255.653 55.0502C255.659 53.8188 256.065 53.0392 256.871 52.7112C257.754 52.251 258.69 51.7768 259.677 51.2887C260.275 51.0166 260.925 50.7306 261.627 50.4306C262.434 50.1027 263.539 49.6387 264.944 49.0388C266.349 48.4388 268.209 47.6609 270.524 46.705C272.916 45.6169 276.024 44.2809 279.848 42.6971C282.313 38.1235 284.829 33.5359 287.398 28.9343C290.07 24.3048 292.598 20.385 294.98 17.175C295.467 16.4857 296.089 16.0954 296.847 16.004C297.71 15.8847 298.51 15.9499 299.247 16.1994C300.563 16.5179 301.753 17.2052 302.819 18.2613C303.989 19.2896 304.651 20.5097 304.806 21.9218C304.821 22.8122 304.547 23.6683 303.985 24.4899C303.498 25.1792 303.064 25.8545 302.683 26.5159L296.486 36.5621C298.412 35.8223 299.574 36.4053 299.973 38.311C300.476 40.1888 300.048 42.7634 298.688 46.0347ZM293.491 118.203C291.537 118.838 289.575 119.029 287.606 118.774C285.609 118.414 283.903 117.474 282.489 115.952C280.839 114.381 279.824 112.473 279.446 110.226C278.963 108.008 278.821 105.809 279.02 103.632C279.279 98.7546 280.418 94.033 282.437 89.4669C284.323 84.8244 286.304 80.3243 288.379 75.9669C289.364 73.8021 290.364 71.6895 291.377 69.629C292.467 67.4363 293.636 65.3339 294.886 63.3219C295.421 62.3959 295.955 61.47 296.49 60.5441C297.129 59.5903 297.956 58.9214 298.971 58.5376C300.744 58.0624 302.335 58.3631 303.741 59.4397C305.148 60.5164 306.151 61.757 306.751 63.1616C306.975 63.9961 307 64.7161 306.827 65.3216C306.73 65.7948 306.504 66.4142 306.15 67.1799C303.686 71.7535 301.312 76.247 299.029 80.6604C296.745 85.0738 294.726 89.64 292.972 94.3589C291.717 97.6023 290.937 100.327 290.634 102.533C290.33 104.738 290.447 106.216 290.983 106.967C291.52 107.718 292.435 107.585 293.727 106.567C295.124 105.522 296.844 103.384 298.885 100.154C299.982 98.4063 301.18 96.4083 302.478 94.1596C303.853 91.7787 305.877 88.2735 308.549 83.644C309.084 82.7181 309.566 81.8061 309.997 80.9082C310.503 79.878 311.17 79.0284 311.997 78.3596C313.499 77.2864 315.081 77.1419 316.745 77.926C318.485 78.5779 319.436 79.8325 319.598 81.6898C319.669 82.7889 319.437 83.8014 318.903 84.7273C318.444 85.5209 317.948 86.3807 317.413 87.3066L314.133 93.217C313.064 95.0688 311.995 96.9206 310.926 98.7724C309.857 100.624 308.735 102.49 307.562 104.37C305.243 108.234 302.989 111.297 300.8 113.561C298.716 115.797 296.28 117.344 293.491 118.203ZM312.55 43.4944C310.673 43.9976 308.874 43.7528 307.154 42.76C305.407 41.6629 304.296 40.2276 303.82 38.4542C303.317 36.5764 303.562 34.7778 304.555 33.0582C305.548 31.3387 306.983 30.2273 308.861 29.7242C310.634 29.249 312.381 29.5078 314.1 30.5006C315.924 31.4654 317.087 32.8867 317.591 34.7644C318.066 36.5379 317.821 38.3365 316.856 40.1604C315.863 41.8799 314.428 42.9913 312.55 43.4944ZM348.452 84.3567C346.349 88.6099 344.301 92.2334 342.308 95.2272C340.315 98.2211 338.158 100.812 335.837 102.999C333.231 105.374 330.148 107.43 326.588 109.167C323.029 110.903 319.498 111.29 315.998 110.327C313.548 109.53 311.759 108.277 310.63 106.567C309.368 104.78 308.51 102.83 308.056 100.715C307.573 98.4968 307.417 96.2465 307.588 93.9644C307.732 91.578 307.997 89.4384 308.384 87.5457C309.796 81.1298 311.945 74.9634 314.832 69.0466C317.719 63.1297 321.459 58.1024 326.053 53.9645C328.603 51.3804 331.648 49.3906 335.187 47.995C338.803 46.4671 342.333 46.0802 345.778 46.8344C348.095 47.5551 349.884 48.8087 351.146 50.5951C352.407 52.3815 353.227 54.3981 353.605 56.6447C354.06 58.759 354.216 61.0094 354.073 63.3958C353.901 65.6779 353.608 67.7131 353.193 69.5015L351.978 74.3554C356.123 73.133 359.306 70.8265 361.528 67.4358C362.139 66.3776 362.792 65.4759 363.487 64.7307C364.286 63.9575 365.353 63.5597 366.689 63.5372C367.92 63.5427 368.989 63.9832 369.894 64.8587C370.772 65.6298 371.26 66.6171 371.359 67.8206C371.486 69.1283 371.101 70.4054 370.205 71.6517C369.385 72.7658 368.604 73.8138 367.861 74.7956C365.27 78.0615 362.285 80.4825 358.906 82.0588C355.498 83.5308 352.014 84.2968 348.452 84.3567ZM318.987 96.4448C318.92 98.6989 319.179 100.083 319.764 100.597C320.453 101.083 321.253 101.148 322.164 100.793C323.152 100.304 324.173 99.5274 325.229 98.4618C326.286 97.3961 327.199 96.4245 327.97 95.547C329.923 93.235 331.638 90.8746 333.117 88.4657C334.568 85.9525 335.901 83.4152 337.115 80.8536C334.867 79.5553 332.979 77.9366 331.453 75.9975C330.004 73.926 328.853 71.7186 328.002 69.3752C325.662 73.5799 323.563 78.0557 321.704 82.8025C319.922 87.4171 319.016 91.9645 318.987 96.4448ZM335.847 59.2226C335.807 59.9044 335.874 60.7809 336.049 61.8521C336.196 62.8189 336.437 63.9282 336.773 65.1801C337.08 66.3276 337.558 67.4854 338.207 68.6533C338.855 69.8213 339.632 70.8431 340.537 71.7185C341.418 69.5817 341.962 67.647 342.169 65.9145C342.452 64.0497 342.606 62.3312 342.632 60.7589C342.582 59.3189 342.354 58.2617 341.95 57.5874C341.546 56.9131 341.017 56.6076 340.363 56.671C339.681 56.6301 338.913 56.8919 338.058 57.4564C337.279 57.8886 336.542 58.4774 335.847 59.2226ZM397.948 90.046C395.577 90.7933 393.483 90.9071 391.667 90.3875C389.927 89.7356 388.52 88.659 387.447 87.1576C386.374 85.6562 385.638 83.9526 385.239 82.0469C384.916 80.0089 384.935 77.9914 385.294 75.9943C385.977 71.4507 387.399 67.1565 389.557 63.112C391.82 59.0395 394.045 55.0332 396.232 51.0929C396.537 50.5638 397.124 49.624 397.992 48.2733C398.832 46.8183 399.582 45.4434 400.241 44.1486C400.873 42.7495 401.209 41.7091 401.25 41.0273C401.291 40.3454 400.689 40.3949 399.445 41.1755C397.269 42.653 395.201 44.3251 393.242 46.1919C391.282 48.0587 389.455 50.0019 387.76 52.0214C385.835 54.4377 383.925 56.9062 382.029 59.4269C380.237 61.9196 378.577 64.4887 377.05 67.1342C376.106 68.6171 375.141 70.441 374.156 72.6057C373.142 74.6662 372.157 76.831 371.2 79.1001C370.242 81.3692 369.299 83.6904 368.37 86.0638C367.517 88.305 366.726 90.3617 365.998 92.234C365.644 92.9996 365.408 93.7895 365.291 94.6036C365.174 95.4177 364.74 96.0931 363.989 96.6296C362.564 97.5705 360.905 97.8473 359.012 97.46C357.12 97.0727 355.703 96.1665 354.762 94.7414C354.225 93.9907 354.016 93.2083 354.133 92.3942C354.25 91.5802 354.434 90.8042 354.683 90.0665L356.647 82.9994C357.416 80.4453 358.276 77.8111 359.226 75.0968C360.175 72.3825 361.344 69.4418 362.732 66.2747C363.987 63.0313 365.524 59.3771 367.342 55.3121C369.264 51.2191 371.53 46.531 374.139 41.2475C374.444 40.7185 374.75 40.1894 375.055 39.6603C375.465 39.1032 375.903 38.6505 376.369 38.3021C377.974 37.201 379.689 37.1329 381.513 38.0977C383.441 39.0346 384.747 40.3618 385.431 42.0793C387.564 39.607 389.871 37.3676 392.352 35.3611C394.805 33.2502 397.631 31.4867 400.83 30.0706C403.145 29.1148 405.065 28.7681 406.589 29.0307C408.113 29.2932 409.446 29.8864 410.588 30.8103C411.862 31.8106 412.681 32.9888 413.044 34.345C413.512 35.6732 413.719 37.0713 413.665 38.5392C413.583 39.9029 413.292 41.3224 412.793 42.7979C412.371 44.1411 411.934 45.4321 411.483 46.671C409.492 51.3414 407.261 55.7409 404.789 59.8693C402.289 63.8933 400.12 68.1083 398.282 72.5142C398.032 73.252 397.721 74.1741 397.346 75.2807C397.048 76.2551 396.841 77.1493 396.723 77.9634C396.606 78.7775 396.655 79.3792 396.872 79.7685C397.088 80.1578 397.609 80.0181 398.436 79.3492C399.653 78.4642 400.904 77.2905 402.189 75.828C403.474 74.3655 404.679 72.8127 405.804 71.1695C406.929 69.5263 407.988 67.845 408.981 66.1254C410.078 64.3779 411.085 62.7106 412.001 61.1233L415.552 54.9726C416.011 54.179 416.493 53.2671 417 52.2368C417.506 51.2066 418.173 50.3571 419 49.6882C420.502 48.6151 422.084 48.4705 423.748 49.2547C425.488 49.9066 426.439 51.1611 426.601 53.0184C426.672 54.1175 426.44 55.13 425.906 56.0559C425.447 56.8496 424.951 57.7094 424.416 58.6353L421.022 64.744C419.953 66.5958 418.831 68.4616 417.658 70.3414C416.561 72.0889 415.412 73.8503 414.21 75.6258C412.217 78.6196 409.907 81.4747 407.281 84.1911C404.759 86.8794 401.648 88.8311 397.948 90.046ZM417.504 51.2631C418.802 49.0145 420.01 46.846 421.128 44.7576C422.322 42.5369 423.449 40.278 424.511 37.981C425.496 35.8162 426.468 33.5993 427.425 31.3302C428.354 28.9568 429.37 26.2806 430.473 23.3018C430.413 19.7399 430.854 16.3792 431.797 13.2196C432.718 10.401 434.169 7.88781 436.15 5.6801C438.206 3.34012 440.747 1.76483 443.772 0.954205C445.233 0.562871 446.582 0.59256 447.821 1.04327C449.06 1.49399 449.913 2.38345 450.381 3.71165C450.633 4.65053 450.634 5.48884 450.384 6.22657C450.239 6.93635 449.923 7.6359 449.437 8.32521C448.923 8.9102 448.343 9.45702 447.696 9.96565C447.05 10.4743 446.47 11.0211 445.955 11.6061C444.489 13.2288 443.458 15.0145 442.863 16.9631C442.371 18.8838 442.154 20.7868 442.212 22.672C442.343 27.333 442.971 31.9725 444.097 36.5905C445.194 41.1042 446.083 45.6738 446.763 50.2994C447.401 53.9301 447.409 57.5059 446.787 61.0269C446.241 64.4155 445.181 67.5509 443.605 70.4329C442.029 73.315 439.962 75.8254 437.405 77.9642C434.819 79.9987 431.725 81.3869 428.122 82.1286C425.069 82.8349 422.123 82.8976 419.284 82.3166C416.417 81.6313 413.935 80.5072 411.839 78.9445C409.611 77.3053 407.939 75.2376 406.823 72.7414C405.575 70.1689 405.095 67.3345 405.383 64.2383C405.465 62.8747 406.076 61.8165 407.216 61.0638C408.252 60.339 409.385 59.9794 410.617 59.9849C411.716 59.914 412.756 60.2502 413.738 60.9934C414.692 61.6323 415.128 62.6336 415.046 63.9972C414.897 67.615 416.027 70.1633 418.436 71.6423C420.741 73.1491 423.406 73.4973 426.431 72.6867C428.83 72.0437 430.888 70.5421 432.603 68.1816C434.291 65.7169 435.311 63.2633 435.662 60.821C435.856 59.8747 435.931 58.9041 435.889 57.9093C435.818 56.8102 435.653 55.5686 435.394 54.1845C435.239 52.7724 434.962 51.1135 434.563 49.2078C434.136 47.1978 433.65 44.7565 433.104 41.884C431.841 44.6821 430.536 47.3238 429.19 49.8091C427.947 52.2663 426.649 54.515 425.295 56.555C424.503 57.7734 423.506 58.432 422.302 58.5308C421.175 58.4974 420.135 58.1612 419.181 57.5223C418.227 56.8834 417.544 56.0042 417.133 54.8846C416.693 53.6608 416.817 52.4536 417.504 51.2631Z" fill="#FDFDFC"/>
</svg>
